# xmcd
#
# Track frame offsets: 
#        183
#        16885
#        28463
#        41888
#        58600
#        75478
#        93135
#        104670
#        118720
#        138228
#        152493
#        167953
#        180968
#        195845
#
# Disc length: 2860 seconds
#
# Revision: 6
# Processed by: cddbd v1.5.2PL0 Copyright (c) Steve Scherf et al.
# Submitted via: ExactAudioCopyFreeDBPlugin 1.0
#
DISCID=ac0b2a0e
DTITLE=Garth Brooks - No Fences
DYEAR=1990
DGENRE=Country
TTITLE0=If Tomorrow Never Comes
TTITLE1=Not Counting You
TTITLE2=Much Too Young (To Feel This Damn Old)
TTITLE3=The Dance
TTITLE4=The Thunder Rolls
TTITLE5=New Way To Fly
TTITLE6=Two Of A Kind, Workin' On A Full House
TTITLE7=Victim Of The Game
TTITLE8=Friends In Low Places
TTITLE9=Wild Horses
TTITLE10=Unanswered Prayers
TTITLE11=Same Old Story
TTITLE12=Mr Blue
TTITLE13=Wolves
EXTD=
EXTT0=
EXTT1=
EXTT2=
EXTT3=
EXTT4=
EXTT5=
EXTT6=
EXTT7=
EXTT8=
EXTT9=
EXTT10=
EXTT11=
EXTT12=
EXTT13=
PLAYORDER=
